<svg width="221" height="246" viewBox="0 0 221 246" fill="none" xmlns="http://www.w3.org/2000/svg">
<path d="M12.625 205.641C9.33333 205.641 6.81771 204.745 5.07812 202.953C2.74479 200.755 1.57812 197.589 1.57812 193.453C1.57812 189.234 2.74479 186.068 5.07812 183.953C6.81771 182.161 9.33333 181.266 12.625 181.266C15.9167 181.266 18.4323 182.161 20.1719 183.953C22.4948 186.068 23.6562 189.234 23.6562 193.453C23.6562 197.589 22.4948 200.755 20.1719 202.953C18.4323 204.745 15.9167 205.641 12.625 205.641ZM17.1719 199.453C18.2865 198.047 18.8438 196.047 18.8438 193.453C18.8438 190.87 18.2812 188.875 17.1562 187.469C16.0417 186.052 14.5312 185.344 12.625 185.344C10.7188 185.344 9.19792 186.047 8.0625 187.453C6.92708 188.859 6.35938 190.859 6.35938 193.453C6.35938 196.047 6.92708 198.047 8.0625 199.453C9.19792 200.859 10.7188 201.562 12.625 201.562C14.5312 201.562 16.0469 200.859 17.1719 199.453ZM36.2344 205.453C34.8281 205.453 33.6979 205.172 32.8438 204.609C32.3333 204.276 31.7812 203.693 31.1875 202.859V205H26.8281V182H31.2656V190.188C31.8281 189.396 32.4479 188.792 33.125 188.375C33.9271 187.854 34.9479 187.594 36.1875 187.594C38.4271 187.594 40.1771 188.401 41.4375 190.016C42.7083 191.63 43.3438 193.714 43.3438 196.266C43.3438 198.911 42.7188 201.104 41.4688 202.844C40.2188 204.583 38.474 205.453 36.2344 205.453ZM38.6719 196.734C38.6719 195.526 38.5156 194.526 38.2031 193.734C37.6094 192.234 36.5156 191.484 34.9219 191.484C33.3073 191.484 32.1979 192.219 31.5938 193.688C31.2812 194.469 31.125 195.479 31.125 196.719C31.125 198.177 31.4479 199.385 32.0938 200.344C32.7396 201.302 33.724 201.781 35.0469 201.781C36.1927 201.781 37.0833 201.318 37.7188 200.391C38.3542 199.464 38.6719 198.245 38.6719 196.734ZM58.2812 188.75C59.6146 189.604 60.3802 191.073 60.5781 193.156H56.125C56.0625 192.583 55.901 192.13 55.6406 191.797C55.151 191.193 54.3177 190.891 53.1406 190.891C52.1719 190.891 51.4792 191.042 51.0625 191.344C50.6562 191.646 50.4531 192 50.4531 192.406C50.4531 192.917 50.6719 193.286 51.1094 193.516C51.5469 193.755 53.0938 194.167 55.75 194.75C57.5208 195.167 58.849 195.797 59.7344 196.641C60.6094 197.495 61.0469 198.562 61.0469 199.844C61.0469 201.531 60.4167 202.911 59.1562 203.984C57.9062 205.047 55.9688 205.578 53.3438 205.578C50.6667 205.578 48.6875 205.016 47.4062 203.891C46.1354 202.755 45.5 201.312 45.5 199.562H50.0156C50.1094 200.354 50.3125 200.917 50.625 201.25C51.1771 201.844 52.1979 202.141 53.6875 202.141C54.5625 202.141 55.2552 202.01 55.7656 201.75C56.2865 201.49 56.5469 201.099 56.5469 200.578C56.5469 200.078 56.3385 199.698 55.9219 199.438C55.5052 199.177 53.9583 198.729 51.2812 198.094C49.3542 197.615 47.9948 197.016 47.2031 196.297C46.4115 195.589 46.0156 194.568 46.0156 193.234C46.0156 191.661 46.6302 190.312 47.8594 189.188C49.099 188.052 50.8385 187.484 53.0781 187.484C55.2031 187.484 56.9375 187.906 58.2812 188.75ZM68.9375 187.969V205H64.4219V187.969H68.9375ZM68.9375 181.828V185.938H64.4219V181.828H68.9375ZM88.7656 182V205H84.4375V202.641C83.8021 203.651 83.0781 204.385 82.2656 204.844C81.4531 205.302 80.4427 205.531 79.2344 205.531C77.2448 205.531 75.5677 204.729 74.2031 203.125C72.849 201.51 72.1719 199.443 72.1719 196.922C72.1719 194.016 72.8385 191.729 74.1719 190.062C75.5156 188.396 77.3073 187.562 79.5469 187.562C80.5781 187.562 81.4948 187.792 82.2969 188.25C83.099 188.698 83.75 189.323 84.25 190.125V182H88.7656ZM76.7656 196.594C76.7656 198.167 77.0781 199.422 77.7031 200.359C78.3177 201.307 79.2552 201.781 80.5156 201.781C81.776 201.781 82.7344 201.312 83.3906 200.375C84.0469 199.438 84.375 198.224 84.375 196.734C84.375 194.651 83.849 193.161 82.7969 192.266C82.151 191.724 81.401 191.453 80.5469 191.453C79.2448 191.453 78.2865 191.948 77.6719 192.938C77.0677 193.917 76.7656 195.135 76.7656 196.594ZM97.4062 187.969V205H92.8906V187.969H97.4062ZM97.4062 181.828V185.938H92.8906V181.828H97.4062ZM102.375 189.812C103.552 188.312 105.573 187.562 108.438 187.562C110.302 187.562 111.958 187.932 113.406 188.672C114.854 189.411 115.578 190.807 115.578 192.859V200.672C115.578 201.214 115.589 201.87 115.609 202.641C115.641 203.224 115.729 203.62 115.875 203.828C116.021 204.036 116.24 204.208 116.531 204.344V205H111.688C111.552 204.656 111.458 204.333 111.406 204.031C111.354 203.729 111.312 203.385 111.281 203C110.667 203.667 109.958 204.234 109.156 204.703C108.198 205.255 107.115 205.531 105.906 205.531C104.365 205.531 103.089 205.094 102.078 204.219C101.078 203.333 100.578 202.083 100.578 200.469C100.578 198.375 101.385 196.859 103 195.922C103.885 195.411 105.188 195.047 106.906 194.828L108.422 194.641C109.245 194.536 109.833 194.406 110.188 194.25C110.823 193.979 111.141 193.557 111.141 192.984C111.141 192.286 110.896 191.807 110.406 191.547C109.927 191.276 109.219 191.141 108.281 191.141C107.229 191.141 106.484 191.401 106.047 191.922C105.734 192.307 105.526 192.828 105.422 193.484H101.125C101.219 191.995 101.635 190.771 102.375 189.812ZM105.688 201.781C106.104 202.125 106.615 202.297 107.219 202.297C108.177 202.297 109.057 202.016 109.859 201.453C110.672 200.891 111.094 199.865 111.125 198.375V196.719C110.844 196.896 110.557 197.042 110.266 197.156C109.984 197.26 109.594 197.359 109.094 197.453L108.094 197.641C107.156 197.807 106.484 198.01 106.078 198.25C105.391 198.656 105.047 199.286 105.047 200.141C105.047 200.901 105.26 201.448 105.688 201.781ZM127.562 191.266C126.052 191.266 125.016 191.906 124.453 193.188C124.161 193.865 124.016 194.729 124.016 195.781V205H119.578V188H123.875V190.484C124.448 189.609 124.99 188.979 125.5 188.594C126.417 187.906 127.578 187.562 128.984 187.562C130.745 187.562 132.182 188.026 133.297 188.953C134.422 189.87 134.984 191.396 134.984 193.531V205H130.422V194.641C130.422 193.745 130.302 193.057 130.062 192.578C129.625 191.703 128.792 191.266 127.562 191.266ZM146.672 181.969H151.812L156.812 199.453L161.859 181.969H166.859L159 205H154.453L146.672 181.969ZM168.25 189.812C169.427 188.312 171.448 187.562 174.312 187.562C176.177 187.562 177.833 187.932 179.281 188.672C180.729 189.411 181.453 190.807 181.453 192.859V200.672C181.453 201.214 181.464 201.87 181.484 202.641C181.516 203.224 181.604 203.62 181.75 203.828C181.896 204.036 182.115 204.208 182.406 204.344V205H177.562C177.427 204.656 177.333 204.333 177.281 204.031C177.229 203.729 177.188 203.385 177.156 203C176.542 203.667 175.833 204.234 175.031 204.703C174.073 205.255 172.99 205.531 171.781 205.531C170.24 205.531 168.964 205.094 167.953 204.219C166.953 203.333 166.453 202.083 166.453 200.469C166.453 198.375 167.26 196.859 168.875 195.922C169.76 195.411 171.062 195.047 172.781 194.828L174.297 194.641C175.12 194.536 175.708 194.406 176.062 194.25C176.698 193.979 177.016 193.557 177.016 192.984C177.016 192.286 176.771 191.807 176.281 191.547C175.802 191.276 175.094 191.141 174.156 191.141C173.104 191.141 172.359 191.401 171.922 191.922C171.609 192.307 171.401 192.828 171.297 193.484H167C167.094 191.995 167.51 190.771 168.25 189.812ZM171.562 201.781C171.979 202.125 172.49 202.297 173.094 202.297C174.052 202.297 174.932 202.016 175.734 201.453C176.547 200.891 176.969 199.865 177 198.375V196.719C176.719 196.896 176.432 197.042 176.141 197.156C175.859 197.26 175.469 197.359 174.969 197.453L173.969 197.641C173.031 197.807 172.359 198.01 171.953 198.25C171.266 198.656 170.922 199.286 170.922 200.141C170.922 200.901 171.135 201.448 171.562 201.781ZM185.516 181.969H189.969V205H185.516V181.969ZM208.906 200C208.792 201.01 208.266 202.036 207.328 203.078C205.87 204.734 203.828 205.562 201.203 205.562C199.036 205.562 197.125 204.865 195.469 203.469C193.812 202.073 192.984 199.802 192.984 196.656C192.984 193.708 193.729 191.448 195.219 189.875C196.719 188.302 198.661 187.516 201.047 187.516C202.464 187.516 203.74 187.781 204.875 188.312C206.01 188.844 206.948 189.682 207.688 190.828C208.354 191.839 208.786 193.01 208.984 194.344C209.099 195.125 209.146 196.25 209.125 197.719H197.469C197.531 199.427 198.068 200.625 199.078 201.312C199.693 201.74 200.432 201.953 201.297 201.953C202.214 201.953 202.958 201.693 203.531 201.172C203.844 200.891 204.12 200.5 204.359 200H208.906ZM204.5 194.781C204.427 193.604 204.068 192.714 203.422 192.109C202.786 191.495 201.995 191.188 201.047 191.188C200.016 191.188 199.214 191.51 198.641 192.156C198.078 192.802 197.724 193.677 197.578 194.781H204.5ZM219.938 201.828V205.156L217.828 205.234C215.724 205.307 214.286 204.943 213.516 204.141C213.016 203.63 212.766 202.844 212.766 201.781V191.297H210.391V188.125H212.766V183.375H217.172V188.125H219.938V191.297H217.172V200.297C217.172 200.995 217.26 201.432 217.438 201.609C217.615 201.776 218.156 201.859 219.062 201.859C219.198 201.859 219.339 201.859 219.484 201.859C219.641 201.849 219.792 201.839 219.938 201.828Z" fill="black"/>
<path d="M33.7759 237.591L32.1426 232.837L30.4067 237.591H33.7759ZM31.3809 231.241H33.0288L36.9326 242H35.3359L34.2446 238.777H29.9893L28.8247 242H27.3306L31.3809 231.241ZM41.437 231.204H42.7554V235.218C43.0679 234.822 43.3486 234.544 43.5977 234.383C44.0225 234.104 44.5522 233.965 45.187 233.965C46.3247 233.965 47.0962 234.363 47.5015 235.159C47.7212 235.594 47.8311 236.197 47.8311 236.968V242H46.4761V237.056C46.4761 236.48 46.4028 236.058 46.2563 235.789C46.0171 235.359 45.5679 235.145 44.9087 235.145C44.3618 235.145 43.8662 235.333 43.4219 235.708C42.9775 236.084 42.7554 236.795 42.7554 237.84V242H41.437V231.204ZM53.0532 233.98C53.6099 233.98 54.1494 234.112 54.6719 234.375C55.1943 234.634 55.5923 234.971 55.8657 235.386C56.1294 235.782 56.3052 236.243 56.3931 236.771C56.4712 237.132 56.5103 237.708 56.5103 238.499H50.7607C50.7852 239.295 50.9731 239.935 51.3247 240.418C51.6763 240.896 52.2207 241.136 52.958 241.136C53.6465 241.136 54.1958 240.909 54.606 240.455C54.8403 240.191 55.0063 239.886 55.104 239.539H56.4004C56.3662 239.827 56.2515 240.149 56.0562 240.506C55.8657 240.857 55.6509 241.146 55.4116 241.37C55.0112 241.761 54.5156 242.024 53.9248 242.161C53.6074 242.239 53.2485 242.278 52.8481 242.278C51.8716 242.278 51.0439 241.924 50.3652 241.216C49.6865 240.503 49.3472 239.507 49.3472 238.228C49.3472 236.968 49.689 235.945 50.3726 235.159C51.0562 234.373 51.9497 233.98 53.0532 233.98ZM55.1553 237.452C55.1016 236.88 54.9771 236.424 54.7817 236.082C54.4204 235.447 53.8174 235.13 52.9727 235.13C52.3672 235.13 51.8594 235.35 51.4492 235.789C51.0391 236.224 50.8218 236.778 50.7974 237.452H55.1553ZM58.1729 231.241H59.4912V242H58.1729V231.241ZM64.7866 241.114C65.4019 241.114 65.9121 240.857 66.3174 240.345C66.7275 239.827 66.9326 239.056 66.9326 238.03C66.9326 237.405 66.8423 236.868 66.6616 236.419C66.3198 235.555 65.6948 235.123 64.7866 235.123C63.8735 235.123 63.2485 235.579 62.9116 236.492C62.731 236.98 62.6406 237.601 62.6406 238.353C62.6406 238.958 62.731 239.473 62.9116 239.898C63.2534 240.708 63.8784 241.114 64.7866 241.114ZM61.3735 234.192H62.6553V235.232C62.9189 234.876 63.207 234.6 63.5195 234.405C63.9639 234.112 64.4863 233.965 65.0869 233.965C65.9756 233.965 66.73 234.307 67.3501 234.991C67.9702 235.669 68.2803 236.641 68.2803 237.906C68.2803 239.615 67.8335 240.835 66.9399 241.568C66.3735 242.032 65.7144 242.264 64.9624 242.264C64.3716 242.264 63.876 242.134 63.4756 241.875C63.2412 241.729 62.98 241.478 62.6919 241.121V245.127H61.3735V234.192ZM73.0923 233.98C73.6489 233.98 74.1885 234.112 74.7109 234.375C75.2334 234.634 75.6313 234.971 75.9048 235.386C76.1685 235.782 76.3442 236.243 76.4321 236.771C76.5103 237.132 76.5493 237.708 76.5493 238.499H70.7998C70.8242 239.295 71.0122 239.935 71.3638 240.418C71.7153 240.896 72.2598 241.136 72.9971 241.136C73.6855 241.136 74.2349 240.909 74.645 240.455C74.8794 240.191 75.0454 239.886 75.1431 239.539H76.4395C76.4053 239.827 76.2905 240.149 76.0952 240.506C75.9048 240.857 75.6899 241.146 75.4507 241.37C75.0503 241.761 74.5547 242.024 73.9639 242.161C73.6465 242.239 73.2876 242.278 72.8872 242.278C71.9106 242.278 71.083 241.924 70.4043 241.216C69.7256 240.503 69.3862 239.507 69.3862 238.228C69.3862 236.968 69.728 235.945 70.4116 235.159C71.0952 234.373 71.9888 233.98 73.0923 233.98ZM75.1943 237.452C75.1406 236.88 75.0161 236.424 74.8208 236.082C74.4595 235.447 73.8564 235.13 73.0117 235.13C72.4062 235.13 71.8984 235.35 71.4883 235.789C71.0781 236.224 70.8608 236.778 70.8364 237.452H75.1943ZM78.2119 234.156H79.4644V235.511C79.5669 235.247 79.8184 234.927 80.2188 234.551C80.6191 234.17 81.0806 233.98 81.603 233.98C81.6274 233.98 81.6689 233.982 81.7275 233.987C81.7861 233.992 81.8862 234.002 82.0278 234.017V235.408C81.9497 235.394 81.8765 235.384 81.8081 235.379C81.7446 235.374 81.6738 235.372 81.5957 235.372C80.9316 235.372 80.4214 235.586 80.0649 236.016C79.7085 236.441 79.5303 236.932 79.5303 237.488V242H78.2119V234.156ZM87.6089 231.966H88.9419V234.156H90.1943V235.232H88.9419V240.352C88.9419 240.625 89.0347 240.809 89.2202 240.901C89.3228 240.955 89.4937 240.982 89.7329 240.982C89.7964 240.982 89.8647 240.982 89.938 240.982C90.0112 240.977 90.0967 240.97 90.1943 240.96V242C90.043 242.044 89.8843 242.076 89.7183 242.095C89.5571 242.115 89.3813 242.125 89.1909 242.125C88.5757 242.125 88.1582 241.968 87.9385 241.656C87.7188 241.338 87.6089 240.928 87.6089 240.425V235.232H86.5469V234.156H87.6089V231.966ZM94.6328 241.15C95.5068 241.15 96.105 240.821 96.4272 240.162C96.7544 239.498 96.918 238.76 96.918 237.95C96.918 237.217 96.8008 236.622 96.5664 236.163C96.1953 235.44 95.5557 235.079 94.6475 235.079C93.8418 235.079 93.2559 235.386 92.8896 236.001C92.5234 236.617 92.3403 237.359 92.3403 238.228C92.3403 239.063 92.5234 239.759 92.8896 240.315C93.2559 240.872 93.8369 241.15 94.6328 241.15ZM94.6841 233.929C95.6948 233.929 96.5493 234.266 97.2476 234.939C97.9458 235.613 98.2949 236.604 98.2949 237.913C98.2949 239.178 97.9873 240.223 97.3721 241.048C96.7568 241.873 95.8022 242.286 94.5083 242.286C93.4292 242.286 92.5723 241.922 91.9375 241.194C91.3027 240.462 90.9854 239.48 90.9854 238.25C90.9854 236.932 91.3198 235.882 91.9888 235.101C92.6577 234.319 93.5562 233.929 94.6841 233.929ZM102.982 241.15C103.856 241.15 104.455 240.821 104.777 240.162C105.104 239.498 105.268 238.76 105.268 237.95C105.268 237.217 105.15 236.622 104.916 236.163C104.545 235.44 103.905 235.079 102.997 235.079C102.191 235.079 101.605 235.386 101.239 236.001C100.873 236.617 100.69 237.359 100.69 238.228C100.69 239.063 100.873 239.759 101.239 240.315C101.605 240.872 102.187 241.15 102.982 241.15ZM103.034 233.929C104.044 233.929 104.899 234.266 105.597 234.939C106.295 235.613 106.645 236.604 106.645 237.913C106.645 239.178 106.337 240.223 105.722 241.048C105.106 241.873 104.152 242.286 102.858 242.286C101.779 242.286 100.922 241.922 100.287 241.194C99.6523 240.462 99.335 239.48 99.335 238.25C99.335 236.932 99.6694 235.882 100.338 235.101C101.007 234.319 101.906 233.929 103.034 233.929ZM108.256 231.241H109.574V242H108.256V231.241ZM116.063 232.962C116.083 232.415 116.178 232.015 116.349 231.761C116.657 231.312 117.25 231.087 118.129 231.087C118.212 231.087 118.297 231.089 118.385 231.094C118.473 231.099 118.573 231.106 118.686 231.116V232.317C118.549 232.308 118.449 232.303 118.385 232.303C118.327 232.298 118.271 232.295 118.217 232.295C117.816 232.295 117.577 232.4 117.499 232.61C117.421 232.815 117.382 233.343 117.382 234.192H118.686V235.232H117.367V242H116.063V235.232H114.972V234.192H116.063V232.962ZM123.021 241.15C123.896 241.15 124.494 240.821 124.816 240.162C125.143 239.498 125.307 238.76 125.307 237.95C125.307 237.217 125.189 236.622 124.955 236.163C124.584 235.44 123.944 235.079 123.036 235.079C122.23 235.079 121.645 235.386 121.278 236.001C120.912 236.617 120.729 237.359 120.729 238.228C120.729 239.063 120.912 239.759 121.278 240.315C121.645 240.872 122.226 241.15 123.021 241.15ZM123.073 233.929C124.083 233.929 124.938 234.266 125.636 234.939C126.334 235.613 126.684 236.604 126.684 237.913C126.684 239.178 126.376 240.223 125.761 241.048C125.146 241.873 124.191 242.286 122.897 242.286C121.818 242.286 120.961 241.922 120.326 241.194C119.691 240.462 119.374 239.48 119.374 238.25C119.374 236.932 119.708 235.882 120.377 235.101C121.046 234.319 121.945 233.929 123.073 233.929ZM128.295 234.156H129.547V235.511C129.65 235.247 129.901 234.927 130.302 234.551C130.702 234.17 131.164 233.98 131.686 233.98C131.71 233.98 131.752 233.982 131.811 233.987C131.869 233.992 131.969 234.002 132.111 234.017V235.408C132.033 235.394 131.959 235.384 131.891 235.379C131.828 235.374 131.757 235.372 131.679 235.372C131.015 235.372 130.504 235.586 130.148 236.016C129.792 236.441 129.613 236.932 129.613 237.488V242H128.295V234.156ZM142.248 230.948C144.147 230.948 145.553 231.558 146.466 232.779C147.179 233.731 147.536 234.949 147.536 236.434C147.536 238.04 147.128 239.375 146.312 240.44C145.355 241.69 143.991 242.315 142.218 242.315C140.563 242.315 139.262 241.768 138.314 240.674C137.47 239.62 137.047 238.287 137.047 236.675C137.047 235.22 137.409 233.975 138.131 232.94C139.059 231.612 140.431 230.948 142.248 230.948ZM142.394 241.011C143.678 241.011 144.606 240.552 145.177 239.634C145.753 238.711 146.042 237.652 146.042 236.456C146.042 235.191 145.709 234.173 145.045 233.401C144.386 232.63 143.483 232.244 142.335 232.244C141.222 232.244 140.314 232.627 139.611 233.394C138.908 234.156 138.556 235.281 138.556 236.771C138.556 237.962 138.856 238.968 139.457 239.788C140.062 240.604 141.042 241.011 142.394 241.011ZM149 231.204H150.282V235.108C150.57 234.732 150.915 234.446 151.315 234.251C151.715 234.051 152.15 233.951 152.619 233.951C153.595 233.951 154.386 234.288 154.992 234.961C155.602 235.63 155.907 236.619 155.907 237.928C155.907 239.168 155.607 240.198 155.006 241.019C154.406 241.839 153.573 242.249 152.509 242.249C151.913 242.249 151.41 242.105 151 241.817C150.756 241.646 150.495 241.373 150.216 240.997V242H149V231.204ZM152.428 241.084C153.141 241.084 153.673 240.801 154.025 240.235C154.381 239.668 154.56 238.921 154.56 237.994C154.56 237.168 154.381 236.485 154.025 235.943C153.673 235.401 153.153 235.13 152.465 235.13C151.864 235.13 151.337 235.352 150.883 235.796C150.434 236.241 150.209 236.973 150.209 237.994C150.209 238.731 150.302 239.329 150.487 239.788C150.834 240.652 151.481 241.084 152.428 241.084ZM158.236 239.539C158.275 239.979 158.385 240.315 158.566 240.55C158.898 240.975 159.474 241.187 160.294 241.187C160.783 241.187 161.212 241.082 161.583 240.872C161.955 240.657 162.14 240.328 162.14 239.883C162.14 239.546 161.991 239.29 161.693 239.114C161.503 239.007 161.127 238.882 160.565 238.741L159.518 238.477C158.849 238.311 158.356 238.125 158.039 237.92C157.472 237.564 157.189 237.071 157.189 236.441C157.189 235.699 157.455 235.098 157.987 234.639C158.524 234.18 159.245 233.951 160.148 233.951C161.33 233.951 162.182 234.297 162.704 234.991C163.031 235.43 163.19 235.904 163.18 236.412H161.935C161.911 236.114 161.806 235.843 161.62 235.599C161.317 235.252 160.792 235.079 160.045 235.079C159.547 235.079 159.169 235.174 158.91 235.364C158.656 235.555 158.529 235.806 158.529 236.119C158.529 236.46 158.698 236.734 159.035 236.939C159.23 237.061 159.518 237.168 159.899 237.261L160.771 237.474C161.718 237.703 162.353 237.925 162.675 238.14C163.188 238.477 163.444 239.007 163.444 239.729C163.444 240.428 163.178 241.031 162.646 241.539C162.118 242.046 161.312 242.3 160.229 242.3C159.062 242.3 158.234 242.037 157.746 241.509C157.262 240.977 157.003 240.32 156.969 239.539H158.236ZM164.953 234.192H166.293V242H164.953V234.192ZM164.953 231.241H166.293V232.735H164.953V231.241ZM169.127 238.169C169.127 239.009 169.306 239.712 169.662 240.279C170.019 240.845 170.59 241.128 171.376 241.128C171.986 241.128 172.487 240.867 172.877 240.345C173.273 239.817 173.471 239.063 173.471 238.082C173.471 237.09 173.268 236.358 172.863 235.884C172.458 235.406 171.957 235.167 171.361 235.167C170.697 235.167 170.158 235.42 169.743 235.928C169.333 236.436 169.127 237.183 169.127 238.169ZM171.112 234.017C171.713 234.017 172.216 234.144 172.621 234.397C172.855 234.544 173.122 234.8 173.419 235.167V231.204H174.687V242H173.5V240.909C173.192 241.392 172.829 241.741 172.409 241.956C171.989 242.171 171.508 242.278 170.966 242.278C170.092 242.278 169.335 241.912 168.695 241.18C168.056 240.442 167.736 239.463 167.736 238.243C167.736 237.1 168.026 236.111 168.607 235.276C169.193 234.437 170.028 234.017 171.112 234.017ZM176.642 234.192H177.982V242H176.642V234.192ZM176.642 231.241H177.982V232.735H176.642V231.241ZM180.993 239.913C180.993 240.293 181.132 240.594 181.41 240.813C181.688 241.033 182.018 241.143 182.399 241.143C182.863 241.143 183.312 241.036 183.747 240.821C184.479 240.464 184.845 239.881 184.845 239.07V238.008C184.684 238.111 184.477 238.196 184.223 238.265C183.969 238.333 183.72 238.382 183.476 238.411L182.677 238.514C182.199 238.577 181.84 238.677 181.601 238.814C181.195 239.043 180.993 239.41 180.993 239.913ZM184.186 237.247C184.489 237.208 184.691 237.081 184.794 236.866C184.853 236.749 184.882 236.58 184.882 236.36C184.882 235.911 184.721 235.586 184.398 235.386C184.081 235.181 183.625 235.079 183.029 235.079C182.34 235.079 181.852 235.264 181.564 235.635C181.403 235.84 181.298 236.146 181.249 236.551H180.019C180.043 235.584 180.355 234.913 180.956 234.537C181.562 234.156 182.262 233.965 183.058 233.965C183.981 233.965 184.73 234.141 185.307 234.493C185.878 234.844 186.164 235.391 186.164 236.133V240.652C186.164 240.789 186.19 240.899 186.244 240.982C186.303 241.065 186.422 241.106 186.603 241.106C186.662 241.106 186.728 241.104 186.801 241.099C186.874 241.089 186.952 241.077 187.035 241.062V242.037C186.83 242.095 186.674 242.132 186.566 242.146C186.459 242.161 186.312 242.168 186.127 242.168C185.673 242.168 185.343 242.007 185.138 241.685C185.031 241.514 184.955 241.272 184.911 240.96C184.643 241.312 184.257 241.617 183.754 241.875C183.251 242.134 182.697 242.264 182.091 242.264C181.364 242.264 180.768 242.044 180.304 241.604C179.845 241.16 179.616 240.606 179.616 239.942C179.616 239.214 179.843 238.65 180.297 238.25C180.751 237.85 181.347 237.603 182.084 237.51L184.186 237.247ZM188.332 234.156H189.584V235.269C189.955 234.81 190.348 234.48 190.763 234.28C191.178 234.08 191.64 233.98 192.147 233.98C193.261 233.98 194.013 234.368 194.403 235.145C194.618 235.569 194.726 236.177 194.726 236.968V242H193.385V237.056C193.385 236.578 193.314 236.192 193.173 235.899C192.938 235.411 192.514 235.167 191.898 235.167C191.586 235.167 191.33 235.198 191.129 235.262C190.768 235.369 190.451 235.584 190.177 235.906C189.958 236.165 189.813 236.434 189.745 236.712C189.682 236.985 189.65 237.378 189.65 237.891V242H188.332V234.156ZM196.996 240.403H198.527V242H196.996V240.403Z" fill="#939393"/>
<rect x="44" width="140" height="140" rx="16" fill="url(#paint0_linear_1_57)"/>
<path d="M113.415 70.0909C113.415 75.8897 112.329 80.8563 110.157 84.9908C108.002 89.1077 105.059 92.2611 101.327 94.451C97.6132 96.6409 93.3999 97.7358 88.6873 97.7358C83.9747 97.7358 79.7527 96.6409 76.0211 94.451C72.3071 92.2436 69.3639 89.0814 67.1916 84.9645C65.0368 80.83 63.9593 75.8722 63.9593 70.0909C63.9593 64.2921 65.0368 59.3343 67.1916 55.2173C69.3639 51.0829 72.3071 47.9207 76.0211 45.7308C79.7527 43.541 83.9747 42.446 88.6873 42.446C93.3999 42.446 97.6132 43.541 101.327 45.7308C105.059 47.9207 108.002 51.0829 110.157 55.2173C112.329 59.3343 113.415 64.2921 113.415 70.0909ZM103.613 70.0909C103.613 66.009 102.974 62.5665 101.695 59.7635C100.434 56.9429 98.6819 54.8144 96.4395 53.3778C94.197 51.9238 91.613 51.1967 88.6873 51.1967C85.7617 51.1967 83.1776 51.9238 80.9352 53.3778C78.6928 54.8144 76.9321 56.9429 75.6532 59.7635C74.3919 62.5665 73.7612 66.009 73.7612 70.0909C73.7612 74.1728 74.3919 77.6241 75.6532 80.4446C76.9321 83.2476 78.6928 85.3762 80.9352 86.8303C83.1776 88.2668 85.7617 88.9851 88.6873 88.9851C91.613 88.9851 94.197 88.2668 96.4395 86.8303C98.6819 85.3762 100.434 83.2476 101.695 80.4446C102.974 77.6241 103.613 74.1728 103.613 70.0909ZM126.942 43.1818L140.949 85.5426H141.5L155.48 43.1818H166.202L147.229 97H135.194L116.247 43.1818H126.942Z" fill="white"/>
<defs>
<linearGradient id="paint0_linear_1_57" x1="114" y1="0" x2="114" y2="140" gradientUnits="userSpaceOnUse">
<stop stop-color="#684CA2"/>
<stop offset="1" stop-color="#B49CE6"/>
</linearGradient>
</defs>
</svg>
