<svg width="140" height="140" viewBox="0 0 140 140" fill="none" xmlns="http://www.w3.org/2000/svg">
<rect width="140" height="140" rx="16" fill="url(#paint0_linear_1_80)"/>
<path d="M69.4153 70.0909C69.4153 75.8897 68.3291 80.8563 66.1568 84.9908C64.002 89.1077 61.0588 92.2611 57.3272 94.451C53.6132 96.6409 49.3999 97.7358 44.6873 97.7358C39.9747 97.7358 35.7527 96.6409 32.0211 94.451C28.3071 92.2436 25.3639 89.0814 23.1916 84.9645C21.0368 80.83 19.9593 75.8722 19.9593 70.0909C19.9593 64.2921 21.0368 59.3343 23.1916 55.2173C25.3639 51.0829 28.3071 47.9207 32.0211 45.7308C35.7527 43.541 39.9747 42.446 44.6873 42.446C49.3999 42.446 53.6132 43.541 57.3272 45.7308C61.0588 47.9207 64.002 51.0829 66.1568 55.2173C68.3291 59.3343 69.4153 64.2921 69.4153 70.0909ZM59.6135 70.0909C59.6135 66.009 58.974 62.5665 57.6951 59.7635C56.4338 56.9429 54.6819 54.8144 52.4395 53.3778C50.197 51.9238 47.613 51.1967 44.6873 51.1967C41.7617 51.1967 39.1776 51.9238 36.9352 53.3778C34.6928 54.8144 32.9321 56.9429 31.6532 59.7635C30.3919 62.5665 29.7612 66.009 29.7612 70.0909C29.7612 74.1728 30.3919 77.6241 31.6532 80.4446C32.9321 83.2476 34.6928 85.3762 36.9352 86.8303C39.1776 88.2668 41.7617 88.9851 44.6873 88.9851C47.613 88.9851 50.197 88.2668 52.4395 86.8303C54.6819 85.3762 56.4338 83.2476 57.6951 80.4446C58.974 77.6241 59.6135 74.1728 59.6135 70.0909ZM82.9421 43.1818L96.9485 85.5426H97.5004L111.48 43.1818H122.202L103.229 97H91.1935L72.2468 43.1818H82.9421Z" fill="white"/>
<defs>
<linearGradient id="paint0_linear_1_80" x1="70" y1="0" x2="70" y2="140" gradientUnits="userSpaceOnUse">
<stop stop-color="#684CA2"/>
<stop offset="1" stop-color="#B49CE6"/>
</linearGradient>
</defs>
</svg>
